<?xml version="1.0" encoding="utf-8"?>
<!-- Generator: Adobe Illustrator 19.1.0, SVG Export Plug-In . SVG Version: 6.00 Build 0)  -->
<svg version="1.1" id="Layer_2" xmlns="http://www.w3.org/2000/svg" xmlns:xlink="http://www.w3.org/1999/xlink" x="0px" y="0px"
	 viewBox="0 0 64 64" style="enable-background:new 0 0 64 64;" xml:space="preserve">
<style type="text/css">
	.st0{fill:#202020;}
</style>
<g>
	<path class="st0" d="M49.7,19.6c-3.3-6.1-9.7-10-16.7-10c-8.6,0-16.2,5.9-18.3,14.1c-0.5-0.1-1.1-0.1-1.7-0.1c-7.2,0-13,5.8-13,13
		s5.8,13,13,13h5c1.1,0,2-0.9,2-2s-0.9-2-2-2h-5c-5,0-9-4-9-9s4-9,9-9c0.9,0,1.8,0.1,2.6,0.4l2.2,0.7l0.3-2.3
		c1.1-7.3,7.5-12.8,14.8-12.8c5.9,0,11.3,3.5,13.7,8.9l0.6,1.2l1.6-0.1c0.1,0,0.1,0,0.2,0c6.1,0,11,4.9,11,11c0,6-4.9,11-11,11l-3,0
		c-1.1,0-2,0.9-2,2s0.9,2,2,2l3,0c8.3,0,15-6.7,15-15C64,26.6,57.7,20,49.7,19.6z"/>
	<path class="st0" d="M38.6,42.2L34,46.8V29.6c0-1.1-0.9-2-2-2s-2,0.9-2,2v17.2l-4.6-4.6c-0.8-0.8-2-0.8-2.8,0c-0.8,0.8-0.8,2,0,2.8
		l9.4,9.4l9.4-9.4c0.8-0.8,0.8-2,0-2.8C40.6,41.4,39.4,41.4,38.6,42.2z"/>
</g>
</svg>
